<svg width="40" height="40" viewBox="0 0 40 40" fill="none" xmlns="http://www.w3.org/2000/svg">
<g filter="url(#filter0_d_484_169)">
<rect x="1.5" y="0.5" width="31" height="31" rx="7.5" stroke="black" shape-rendering="crispEdges"/>
<path fill-rule="evenodd" clip-rule="evenodd" d="M6 23C6 22.4477 6.44772 22 7 22H27C27.5523 22 28 22.4477 28 23C28 23.5523 27.5523 24 27 24H7C6.44772 24 6 23.5523 6 23Z" fill="black"/>
<path fill-rule="evenodd" clip-rule="evenodd" d="M6 15C6 14.4477 6.44772 14 7 14H27C27.5523 14 28 14.4477 28 15C28 15.5523 27.5523 16 27 16H7C6.44772 16 6 15.5523 6 15Z" fill="black"/>
<path fill-rule="evenodd" clip-rule="evenodd" d="M6 7C6 6.44772 6.44772 6 7 6H27C27.5523 6 28 6.44772 28 7C28 7.55228 27.5523 8 27 8H7C6.44772 8 6 7.55228 6 7Z" fill="black"/>
</g>
<defs>
<filter id="filter0_d_484_169" x="0" y="0" width="40" height="40" filterUnits="userSpaceOnUse" color-interpolation-filters="sRGB">
<feFlood flood-opacity="0" result="BackgroundImageFix"/>
<feColorMatrix in="SourceAlpha" type="matrix" values="0 0 0 0 0 0 0 0 0 0 0 0 0 0 0 0 0 0 127 0" result="hardAlpha"/>
<feOffset dx="3" dy="4"/>
<feGaussianBlur stdDeviation="2"/>
<feComposite in2="hardAlpha" operator="out"/>
<feColorMatrix type="matrix" values="0 0 0 0 0.691667 0 0 0 0 0.640412 0 0 0 0 0.509429 0 0 0 0.34 0"/>
<feBlend mode="normal" in2="BackgroundImageFix" result="effect1_dropShadow_484_169"/>
<feBlend mode="normal" in="SourceGraphic" in2="effect1_dropShadow_484_169" result="shape"/>
</filter>
</defs>
</svg>
